<svg width="24" height="24" viewBox="0 0 24 24" fill="none" xmlns="http://www.w3.org/2000/svg">
<path d="M7.03 0.0840095C5.753 0.14401 4.881 0.34801 4.12 0.64701C3.31972 0.950161 2.59496 1.42378 1.996 2.03501C1.38729 2.63562 0.916422 3.36138 0.616 4.16201C0.321 4.92601 0.12 5.80001 0.0639999 7.07601C0.00799986 8.35201 -0.00500014 8.76401 0.000999861 12.023C0.00699986 15.282 0.0219999 15.69 0.0839999 16.97C0.145 18.247 0.348 19.119 0.647 19.881C0.955 20.67 1.367 21.338 2.035 22.004C2.63619 22.613 3.36266 23.0838 4.164 23.384C4.927 23.679 5.8 23.88 7.077 23.936C8.355 23.992 8.766 24.005 12.024 23.999C15.282 23.993 15.692 23.978 16.971 23.917C18.251 23.857 19.118 23.652 19.881 23.354C20.6809 23.0507 21.4053 22.5771 22.004 21.966C22.6129 21.3648 23.0838 20.6384 23.384 19.837C23.679 19.074 23.88 18.201 23.935 16.925C23.991 15.645 24.005 15.235 23.998 11.977C23.992 8.71901 23.978 8.31001 23.917 7.03001C23.857 5.75001 23.653 4.88201 23.353 4.11901C23.05 3.31917 22.5767 2.59478 21.966 1.99601C21.3651 1.38718 20.639 0.916303 19.838 0.61601C19.074 0.32201 18.202 0.12001 16.924 0.0660095C15.647 0.00900954 15.236 -0.00599046 11.977 9.54152e-06C8.718 0.00600954 8.31 0.0210095 7.03 0.0840095ZM7.17 21.777C6 21.727 5.365 21.532 4.942 21.369C4.41996 21.1783 3.9476 20.8724 3.56 20.474C3.16035 20.0881 2.85274 19.6171 2.66 19.096C2.495 18.673 2.297 18.038 2.243 16.868C2.183 15.604 2.171 15.224 2.163 12.02C2.157 8.81601 2.169 8.43701 2.224 7.17201C2.274 6.00301 2.47 5.36701 2.632 4.94401C2.848 4.38301 3.109 3.98401 3.527 3.56201C3.91322 3.16223 4.38456 2.85461 4.906 2.66201C5.329 2.49701 5.963 2.30101 7.133 2.24501C8.398 2.18501 8.777 2.17301 11.981 2.16501C15.184 2.15901 15.564 2.17101 16.831 2.22701C17.999 2.27701 18.635 2.47101 19.058 2.63501C19.618 2.85101 20.018 3.11001 20.44 3.53001C20.862 3.95001 21.121 4.34701 21.34 4.90801C21.505 5.33001 21.702 5.96401 21.757 7.13501C21.817 8.40001 21.831 8.78001 21.837 11.983C21.842 15.186 21.831 15.566 21.776 16.831C21.725 18.001 21.531 18.636 21.368 19.061C21.152 19.621 20.891 20.021 20.472 20.441C20.0861 20.8407 19.6151 21.1483 19.094 21.341C18.672 21.506 18.036 21.703 16.868 21.759C15.602 21.819 15.223 21.831 12.018 21.838C8.813 21.845 8.436 21.831 7.17 21.777ZM16.953 5.58601C16.9534 5.87086 17.0383 6.14919 17.1969 6.3858C17.3555 6.6224 17.5807 6.80666 17.844 6.91525C18.1073 7.02385 18.397 7.0519 18.6763 6.99587C18.9555 6.93984 19.2119 6.80224 19.413 6.60047C19.6141 6.3987 19.7508 6.14184 19.8058 5.86236C19.8609 5.58289 19.8318 5.29336 19.7223 5.0304C19.6128 4.76745 19.4278 4.54288 19.1906 4.3851C18.9535 4.22732 18.6748 4.14342 18.39 4.14401C18.0083 4.1448 17.6425 4.29714 17.373 4.56754C17.1035 4.83794 16.9525 5.20427 16.953 5.58601ZM5.839 12.012C5.84218 13.6461 6.49439 15.2121 7.65215 16.3653C8.8099 17.5186 10.3784 18.1647 12.0125 18.1615C13.6466 18.1583 15.2126 17.5061 16.3658 16.3484C17.5191 15.1906 18.1652 13.6221 18.162 11.988C18.1384 10.3674 17.4773 8.82124 16.3218 7.68463C15.1663 6.54801 13.6095 5.91244 11.9887 5.9156C10.3678 5.91875 8.81351 6.56039 7.66244 7.70149C6.51137 8.8426 5.85625 10.3913 5.839 12.012ZM8 12.008C7.99842 11.2169 8.23147 10.4431 8.66968 9.78439C9.10789 9.12571 9.73158 8.61178 10.4619 8.30757C11.1922 8.00336 11.9963 7.92254 12.7725 8.07532C13.5487 8.22811 14.2622 8.60765 14.8228 9.16594C15.3833 9.72423 15.7657 10.4362 15.9216 11.2118C16.0775 11.9874 15.9999 12.7918 15.6986 13.5234C15.3973 14.2549 14.8858 14.8806 14.2289 15.3214C13.572 15.7623 12.7991 15.9984 12.008 16C11.4827 16.0011 10.9624 15.8986 10.4767 15.6986C9.99095 15.4985 9.5494 15.2048 9.17723 14.8341C8.80505 14.4634 8.50953 14.023 8.30754 13.5381C8.10555 13.0532 8.00105 12.5333 8 12.008Z" fill="black"/>
</svg>
